<svg width="1440" height="4237" viewBox="0 0 1440 4237" fill="none" xmlns="http://www.w3.org/2000/svg">
<g clip-path="url(#clip0_0_321)">
<rect width="1440" height="4237" fill="white"/>
<path opacity="0.3" d="M394.978 4237.02C364.717 4243.55 340.565 4268.13 331.558 4297.33C322.231 4327.57 331.658 4359.31 354.941 4380.5C377.423 4400.94 410.922 4410.59 440.013 4399.41C467.224 4388.96 490.866 4359.14 477.731 4329.33C466.634 4304.15 433.745 4289.44 408.053 4300.42C382.362 4311.41 369.876 4342.16 374.574 4368.71C380.512 4402.21 413.062 4420.7 442.822 4430.07C478.87 4441.48 520.867 4443.16 550.397 4469.43C573.679 4490.15 585.096 4522.42 582.776 4553.24C581.716 4568.68 576.819 4583.62 568.531 4596.7C559.364 4610.88 543.719 4623.03 526.465 4624.69C507.271 4626.54 493.475 4611.81 492.086 4593.33C490.576 4573 502.892 4555.24 514.599 4539.81C536.961 4510.36 565.582 4481.04 602.73 4471.96C635.629 4463.96 675.196 4473.02 692.641 4504.34C712.414 4539.85 698.339 4582.23 677.376 4613.56C665.999 4630.55 652.474 4646.06 639.158 4661.55C625.622 4677.29 611.967 4692.96 599.171 4709.34C574.959 4740.41 553.836 4774.51 544.729 4813.24C536.182 4849.57 538.731 4888.64 558.894 4920.82C577.628 4950.81 607.878 4971.97 640.048 4985.54C680.235 5002.53 723.92 5009.21 766.507 5017.35L903.102 5043.46L968.601 5055.98C970.01 5056.25 970.6 5054.09 969.201 5053.81L834.245 5028.01C790.339 5019.62 746.123 5012.19 702.517 5002.35C663.7 4993.59 624.763 4980.82 593.343 4955.56C579.427 4944.37 567.191 4930.94 558.304 4915.39C548.764 4898.4 543.344 4879.4 542.48 4859.94C538.131 4775.25 600.851 4710.36 651.564 4650.49C675.716 4621.96 700.548 4590.19 703.867 4551.52C705.316 4534.8 702.667 4517.33 694.28 4502.62C686.553 4489.35 674.61 4479.05 660.351 4473.35C629.581 4460.71 594.922 4467.57 567.551 4485C552.256 4494.77 538.931 4507.34 527.035 4520.94C514.889 4534.83 502.183 4550.1 494.805 4567.14C488.527 4581.66 487.098 4599.54 496.355 4613.2C504.632 4625.4 519.287 4629.26 533.153 4625.77C563.353 4618.17 580.797 4587.59 584.486 4558.54C588.135 4529.73 579.707 4499.18 560.874 4476.95C536.881 4448.67 499.434 4441.88 465.195 4433.74C432.765 4426.05 392.948 4413.06 379.723 4378.88C369.156 4351.58 380.492 4315.4 407.983 4302.9C435.754 4290.26 473.602 4309.9 478.68 4340.18C484.778 4376.47 445.131 4402.26 413.092 4401.89C381.052 4401.52 349.722 4380.9 336.517 4351.69C322.791 4321.28 332.428 4285.29 355.151 4261.96C366.081 4250.56 380.135 4242.65 395.547 4239.22C396.977 4238.91 396.357 4236.75 394.978 4237.02Z" fill="#9A97ED"/>
<g style="mix-blend-mode:multiply" filter="url(#filter0_f_0_321)">
<rect x="756" y="4365" width="530" height="268" rx="40" fill="#EDEDED"/>
</g>
<mask id="mask0_0_321" style="mask-type:alpha" maskUnits="userSpaceOnUse" x="17" y="0" width="1440" height="3232">
<rect x="17" width="1440" height="3232" fill="url(#paint0_linear_0_321)"/>
</mask>
<g mask="url(#mask0_0_321)">
<path d="M570.07 1934.6C586.11 1965.41 618.06 1987.6 652.974 1989.94C683.879 1991.98 717.834 1978.32 732.011 1949.4C744.57 1923.77 740.559 1887.69 715.757 1870.67C693.876 1855.66 659.162 1860.31 643.814 1882.52C628.252 1905.03 639.896 1934.34 659.26 1950.18C682.758 1969.47 714.539 1967.79 741.162 1956.22C776.545 1940.88 801.415 1910.74 828.28 1884.32C853.345 1859.66 884.513 1835.44 921.362 1834.77C959.482 1834.05 990.505 1862.25 1003.9 1896.22C1010.68 1913.44 1013.62 1932.02 1013.86 1950.47C1014.12 1969.18 1011.54 1988.21 1004.36 2005.6C991.166 2037.48 958.197 2065.13 921.852 2057.35C906.086 2053.97 891.284 2044.25 883.67 2029.81C876.216 2015.66 877.279 1998.75 884.09 1984.59C890.945 1970.21 903.138 1959.09 918.075 1953.57C933.641 1947.91 950.838 1948.2 966.659 1952.66C1005.64 1963.67 1030.95 1998.59 1047.5 2033.52C1063.39 2067.03 1074.84 2104.32 1102.81 2130.28C1114.16 2140.82 1127.87 2149.31 1143.13 2152.64C1158.81 2156.03 1174.73 2153.22 1189.14 2146.4C1225.18 2129.41 1245.93 2093.07 1278.25 2071.07C1304.82 2052.99 1337.33 2044.28 1369.37 2045.52C1385.42 2046.11 1401.27 2049.31 1416.29 2054.99C1434.31 2061.88 1450.01 2073.65 1468.16 2080.2C1482.4 2085.33 1499.66 2086.79 1513.07 2078.6C1528.89 2068.95 1533.73 2049.69 1539.2 2033.26C1544.38 2017.65 1553.45 1999.14 1571.52 1996.27C1572.95 1996.04 1572.32 1993.87 1570.9 1994.11C1554.84 1996.67 1545.2 2011.54 1539.58 2025.58C1532.63 2042.94 1529.8 2065.01 1512.87 2076.07C1497.43 2086.19 1477.47 2082.2 1461.68 2075.2C1444.99 2067.75 1429.94 2057.3 1412.57 2051.3C1383.29 2041.17 1350.89 2040.66 1321.1 2048.91C1306.15 2053.02 1291.93 2059.43 1278.95 2067.91C1262.54 2078.69 1249.09 2093.07 1235.46 2107.07C1210.66 2132.42 1178.53 2159.93 1140.34 2149.63C1105.09 2140.07 1083.49 2107.24 1068.93 2076.12C1052.23 2040.33 1039.22 2002.16 1009.33 1974.7C985.652 1952.96 951.28 1940.27 919.594 1950.67C893.078 1959.41 872.644 1986.86 876.7 2015.42C880.995 2045.52 912.917 2064.07 941.658 2060.43C975.382 2056.16 1000.15 2027.95 1009.91 1996.85C1020.17 1964.01 1018.35 1924.99 1005.11 1893.27C992.24 1862.42 964.91 1836.26 930.544 1832.89C898.339 1829.73 867.692 1846.58 843.936 1866.81C813.345 1892.87 789.319 1926.81 754.108 1947.16C727.181 1962.73 691.624 1970.58 664.428 1951.32C642.18 1935.56 628.17 1901.92 649.295 1879.28C659.445 1868.41 674.94 1863.53 689.551 1864.35C705.282 1865.07 719.655 1873.48 727.992 1886.84C736.475 1900.45 738.562 1917.51 735.262 1933.06C731.738 1949.43 722.053 1963.82 708.213 1973.25C678.634 1993.72 638.632 1991.62 608.726 1973.1C593.159 1963.42 580.479 1949.73 572.009 1933.47C571.336 1932.17 569.404 1933.32 570.07 1934.6Z" fill="#9A97ED"/>
<path opacity="0.3" d="M-178.292 1236.41C-171.762 1266.68 -147.172 1290.84 -117.972 1299.85C-87.7224 1309.18 -55.9724 1299.75 -34.7724 1276.46C-14.3224 1253.97 -4.67239 1220.46 -15.8524 1191.36C-26.3124 1164.14 -56.1424 1140.49 -85.9624 1153.63C-111.142 1164.73 -125.862 1197.63 -114.872 1223.33C-103.882 1249.03 -73.1224 1261.52 -46.5624 1256.82C-13.0524 1250.88 5.43762 1218.32 14.8076 1188.55C26.2276 1152.49 27.9076 1110.48 54.1876 1080.94C74.9076 1057.65 107.188 1046.23 138.018 1048.55C153.467 1049.61 168.408 1054.51 181.488 1062.8C195.678 1071.97 207.828 1087.62 209.488 1104.88C211.338 1124.08 196.608 1137.88 178.118 1139.27C157.788 1140.78 140.018 1128.46 124.588 1116.75C95.1276 1094.38 65.7976 1065.75 56.7176 1028.59C48.7176 995.678 57.7776 956.098 89.1076 938.648C124.628 918.868 167.018 932.948 198.358 953.918C215.358 965.298 230.868 978.828 246.358 992.148C262.108 1005.69 277.778 1019.35 294.168 1032.15C325.248 1056.37 359.358 1077.5 398.098 1086.61C434.438 1095.16 473.518 1092.61 505.708 1072.44C535.708 1053.7 556.878 1023.44 570.448 991.258C587.448 951.058 594.128 907.358 602.268 864.758L628.388 728.118L640.908 662.598C641.178 661.188 639.018 660.598 638.738 661.998L612.928 796.998C604.538 840.918 597.108 885.148 587.268 928.768C578.498 967.598 565.728 1006.55 540.458 1037.98C529.268 1051.9 515.838 1064.14 500.278 1073.03C483.281 1082.57 464.281 1087.99 444.808 1088.86C360.098 1093.21 295.188 1030.47 235.298 979.738C206.758 955.578 174.978 930.738 136.298 927.418C119.578 925.968 102.098 928.618 87.3876 937.008C74.114 944.737 63.8072 956.684 58.1076 970.948C45.4576 1001.73 52.3276 1036.4 69.7576 1063.78C79.5276 1079.08 92.1076 1092.41 105.708 1104.31C119.608 1116.46 134.878 1129.17 151.928 1136.55C166.448 1142.83 184.338 1144.26 197.998 1135C210.198 1126.72 214.058 1112.06 210.568 1098.19C202.968 1067.98 172.378 1050.53 143.318 1046.84C114.498 1043.19 83.9476 1051.62 61.7076 1070.46C33.4176 1094.46 26.6276 1131.92 18.4876 1166.17C10.7876 1198.61 -2.20238 1238.44 -36.3924 1251.67C-63.7024 1262.24 -99.8924 1250.9 -112.392 1223.4C-125.042 1195.62 -105.392 1157.76 -75.1024 1152.68C-38.8024 1146.58 -13.0024 1186.24 -13.3724 1218.29C-13.7424 1250.34 -34.3724 1281.68 -63.5924 1294.89C-94.0124 1308.62 -130.012 1298.98 -153.352 1276.25C-164.75 1265.31 -172.662 1251.26 -176.092 1235.84C-176.402 1234.41 -178.562 1235.03 -178.292 1236.41Z" fill="#9A97ED"/>
</g>
</g>
<defs>
<filter id="filter0_f_0_321" x="625.522" y="4234.52" width="790.955" height="528.955" filterUnits="userSpaceOnUse" color-interpolation-filters="sRGB">
<feFlood flood-opacity="0" result="BackgroundImageFix"/>
<feBlend mode="normal" in="SourceGraphic" in2="BackgroundImageFix" result="shape"/>
<feGaussianBlur stdDeviation="65.2388" result="effect1_foregroundBlur_0_321"/>
</filter>
<linearGradient id="paint0_linear_0_321" x1="1457" y1="3232" x2="1457" y2="0" gradientUnits="userSpaceOnUse">
<stop stop-color="white" stop-opacity="0.01"/>
<stop offset="1" stop-color="#EDE5F0"/>
</linearGradient>
<clipPath id="clip0_0_321">
<rect width="1440" height="4237" fill="white"/>
</clipPath>
</defs>
</svg>
