<svg width="1024" height="2439" viewBox="0 0 1024 2439" fill="none" xmlns="http://www.w3.org/2000/svg">
<g clip-path="url(#clip0_0_695)">
<rect width="1024" height="2439" fill="white"/>
<path d="M405.383 1380.43C416.789 1402.34 439.51 1418.12 464.337 1419.78C486.314 1421.23 510.46 1411.51 520.542 1390.95C529.472 1372.72 526.62 1347.07 508.983 1334.97C493.423 1324.29 468.738 1327.6 457.824 1343.39C446.757 1359.4 455.037 1380.24 468.807 1391.51C485.517 1405.22 508.117 1404.03 527.048 1395.8C552.21 1384.89 569.895 1363.46 588.999 1344.67C606.823 1327.13 628.987 1309.91 655.191 1309.44C682.298 1308.92 704.359 1328.98 713.883 1353.14C718.709 1365.38 720.795 1378.59 720.969 1391.71C721.151 1405.01 719.32 1418.55 714.21 1430.91C704.829 1453.59 681.385 1473.25 655.539 1467.72C644.328 1465.31 633.802 1458.4 628.388 1448.13C623.087 1438.07 623.843 1426.04 628.686 1415.97C633.561 1405.75 642.232 1397.84 652.853 1393.92C663.922 1389.9 676.152 1390.1 687.402 1393.27C715.123 1401.1 733.118 1425.93 744.892 1450.77C756.191 1474.6 764.333 1501.12 784.219 1519.58C792.29 1527.08 802.041 1533.11 812.895 1535.48C824.042 1537.89 835.362 1535.89 845.612 1531.04C871.236 1518.96 885.993 1493.11 908.979 1477.47C927.875 1464.62 950.992 1458.42 973.774 1459.3C985.187 1459.72 996.456 1462 1007.14 1466.04C1019.95 1470.94 1031.12 1479.31 1044.03 1483.97C1054.15 1487.61 1066.42 1488.65 1075.96 1482.83C1087.21 1475.96 1090.66 1462.27 1094.54 1450.59C1098.22 1439.48 1104.68 1426.32 1117.52 1424.28C1118.54 1424.12 1118.09 1422.58 1117.09 1422.75C1105.66 1424.56 1098.81 1435.14 1094.81 1445.13C1089.87 1457.47 1087.86 1473.16 1075.82 1481.03C1064.84 1488.22 1050.65 1485.39 1039.41 1480.41C1027.55 1475.11 1016.84 1467.68 1004.49 1463.41C983.672 1456.21 960.633 1455.85 939.447 1461.71C928.818 1464.64 918.708 1469.19 909.478 1475.22C897.804 1482.89 888.241 1493.12 878.553 1503.07C860.913 1521.1 838.066 1540.66 810.912 1533.33C785.839 1526.54 770.485 1503.19 760.131 1481.06C748.251 1455.61 739.001 1428.47 717.744 1408.94C700.909 1393.48 676.466 1384.46 653.934 1391.85C635.078 1398.07 620.547 1417.59 623.431 1437.9C626.485 1459.3 649.186 1472.49 669.624 1469.91C693.605 1466.87 711.219 1446.81 718.155 1424.69C725.457 1401.34 724.158 1373.6 714.747 1351.03C705.593 1329.1 686.158 1310.5 661.72 1308.1C638.819 1305.85 617.026 1317.84 600.133 1332.22C578.378 1350.75 561.293 1374.88 536.255 1389.36C517.106 1400.43 491.822 1406.01 472.482 1392.32C456.661 1381.11 446.699 1357.19 461.721 1341.09C468.939 1333.36 479.957 1329.89 490.348 1330.47C501.534 1330.98 511.755 1336.96 517.683 1346.46C523.716 1356.14 525.2 1368.27 522.853 1379.33C520.347 1390.97 513.46 1401.21 503.618 1407.91C482.584 1422.47 454.139 1420.98 432.872 1407.8C421.802 1400.92 412.785 1391.19 406.762 1379.62C406.283 1378.7 404.91 1379.52 405.383 1380.43Z" fill="#9A97ED"/>
<path d="M-126.786 883.935C-122.142 905.46 -104.656 922.64 -83.8915 929.048C-62.3804 935.682 -39.8026 928.976 -24.727 912.415C-10.1848 896.422 -3.32257 872.592 -11.2728 851.899C-18.711 832.543 -39.9235 815.725 -61.1288 825.069C-79.0346 832.962 -89.5021 856.358 -81.687 874.633C-73.8719 892.909 -51.9981 901.791 -33.111 898.448C-9.28168 894.224 3.86677 871.071 10.5299 849.901C18.6508 824.258 19.8454 794.384 38.5334 773.378C53.2677 756.816 76.2223 748.695 98.1459 750.345C109.132 751.1 119.757 754.583 129.058 760.479C139.149 766.999 147.789 778.128 148.969 790.402C150.285 804.056 139.81 813.869 126.661 814.857C112.205 815.931 99.5681 807.17 88.5957 798.843C67.6463 782.936 46.7894 762.576 40.3325 736.152C34.6436 712.749 41.0863 684.603 63.3654 672.194C88.6241 658.128 118.768 668.141 141.054 683.053C153.143 691.145 164.173 700.767 175.188 710.239C186.388 719.867 197.531 729.581 209.186 738.683C231.287 755.906 255.543 770.932 283.092 777.41C308.933 783.49 336.724 781.677 359.614 767.334C380.948 754.008 396.002 732.489 405.652 709.606C417.741 681.019 422.491 649.944 428.279 619.65L446.853 522.484L455.757 475.892C455.949 474.889 454.413 474.47 454.213 475.465L435.86 571.465C429.893 602.697 424.61 634.15 417.613 665.168C411.376 692.781 402.295 720.479 384.325 742.829C376.368 752.728 366.818 761.432 355.753 767.753C343.666 774.54 330.156 778.396 316.308 779.01C256.069 782.104 209.911 737.488 167.323 701.414C147.028 684.233 124.429 666.569 96.9228 664.208C85.033 663.177 72.6028 665.062 62.1423 671.028C52.7033 676.524 45.374 685.02 41.321 695.163C32.3254 717.051 37.2108 741.705 49.6054 761.176C56.553 772.056 65.4988 781.535 75.1699 789.997C85.0543 798.637 95.913 807.675 108.037 812.923C118.363 817.389 131.085 818.406 140.798 811.821C149.474 805.933 152.219 795.508 149.737 785.645C144.333 764.162 122.58 751.753 101.915 749.129C81.4205 746.534 59.6961 752.528 43.881 765.926C23.7636 782.992 18.9352 809.631 13.1468 833.986C7.6712 857.055 -1.56612 885.378 -25.879 894.786C-45.2995 902.303 -71.0346 894.239 -79.9235 874.683C-88.919 854.928 -74.9457 828.006 -53.4061 824.393C-27.5928 820.056 -9.24613 848.258 -9.50924 871.049C-9.77235 893.84 -24.4426 916.127 -45.2212 925.52C-66.8532 935.284 -92.4532 928.429 -109.051 912.265C-117.156 904.49 -122.782 894.493 -125.221 883.529C-125.442 882.512 -126.978 882.953 -126.786 883.935Z" fill="#9A97ED"/>
<rect y="2348" width="1024" height="694.044" fill="white"/>
</g>
<defs>
<clipPath id="clip0_0_695">
<rect width="1024" height="2439" fill="white"/>
</clipPath>
</defs>
</svg>
