<svg width="375" height="977" viewBox="0 0 375 977" fill="none" xmlns="http://www.w3.org/2000/svg">
<g clip-path="url(#clip0_0_2324)">
<rect width="375" height="977" fill="white"/>
<path d="M-66.356 519.017C-87.8813 523.66 -105.062 541.146 -111.469 561.911C-118.104 583.422 -111.398 606 -94.836 621.075C-78.8431 635.617 -55.0138 642.48 -34.3204 634.529C-14.964 627.091 1.85377 605.879 -7.49023 584.673C-15.3836 566.768 -38.7791 556.3 -57.0547 564.115C-75.3302 571.93 -84.212 593.804 -80.8698 612.691C-76.6458 636.521 -53.492 649.669 -32.3222 656.332C-6.67956 664.453 23.1942 665.648 44.2004 684.336C60.7622 699.07 68.8831 722.025 67.2333 743.948C66.4787 754.934 62.9959 765.559 57.1 774.86C50.5791 784.951 39.4502 793.591 27.1764 794.771C13.5231 796.087 3.70977 785.612 2.72133 772.464C1.64755 758.007 10.4084 745.37 18.7355 734.398C34.6431 713.449 55.0022 692.592 81.4271 686.135C104.83 680.446 132.976 686.889 145.384 709.168C159.45 734.426 149.438 764.57 134.526 786.857C126.433 798.945 116.812 809.975 107.34 820.99C97.7116 832.19 87.9978 843.333 78.8956 854.988C61.6724 877.089 46.6467 901.345 40.1684 928.894C34.0884 954.736 35.9018 982.526 50.2449 1005.42C63.5711 1026.75 85.0893 1041.8 107.973 1051.45C136.56 1063.54 167.635 1068.29 197.928 1074.08L295.095 1092.66L341.687 1101.56C342.689 1101.75 343.109 1100.21 342.113 1100.02L246.113 1081.66C214.881 1075.7 183.429 1070.41 152.41 1063.41C124.798 1057.18 97.1 1048.1 74.7498 1030.13C64.8511 1022.17 56.1471 1012.62 49.8253 1001.56C43.0387 989.469 39.1831 975.958 38.5684 962.11C35.4751 901.872 80.0902 855.713 116.165 813.125C133.345 792.83 151.009 770.231 153.37 742.725C154.401 730.835 152.517 718.405 146.551 707.945C141.054 698.506 132.558 691.176 122.416 687.123C100.528 678.128 75.8733 683.013 56.4031 695.408C45.5231 702.355 36.044 711.301 27.5818 720.972C18.9418 730.857 9.90356 741.715 4.65556 753.84C0.189778 764.165 -0.827115 776.887 5.75777 786.601C11.6458 795.276 22.0707 798.021 31.9338 795.539C53.4164 790.135 65.8253 768.382 68.4493 747.717C71.0449 727.223 65.0502 705.498 51.6529 689.683C34.5862 669.566 7.948 664.737 -16.4076 658.949C-39.476 653.473 -67.7996 644.236 -77.2076 619.923C-84.724 600.503 -76.66 574.768 -57.1044 565.879C-37.3498 556.883 -10.4271 570.857 -6.81467 592.396C-2.47689 618.209 -30.6796 636.556 -53.4707 636.293C-76.2618 636.03 -98.548 621.36 -107.942 600.581C-117.705 578.949 -110.85 553.349 -94.6867 536.752C-86.9115 528.647 -76.914 523.021 -65.9507 520.581C-64.9338 520.361 -65.3747 518.825 -66.356 519.017Z" fill="#D1ECFD"/>
</g>
<defs>
<clipPath id="clip0_0_2324">
<rect width="375" height="977" fill="white"/>
</clipPath>
</defs>
</svg>
