<svg width="924" height="513" viewBox="0 0 924 513" fill="none" xmlns="http://www.w3.org/2000/svg">
<rect y="34.0225" width="831.289" height="443.733" rx="28.4444" fill="#D1ECFD"/>
<rect x="57.2888" y="0.0224609" width="823" height="512" rx="28.4444" fill="#5468E7"/>
<path fill-rule="evenodd" clip-rule="evenodd" d="M725.76 57.501C728.977 49.0338 730.585 44.8002 733.351 41.6814C735.793 38.9262 738.869 36.805 742.312 35.4998C746.209 34.0225 750.738 34.0225 759.796 34.0225H887.591C900.335 34.0225 906.708 34.0225 911.575 36.5027C915.857 38.6843 919.338 42.1655 921.52 46.4472C924 51.3149 924 57.687 924 70.4314V441.614C924 454.358 924 460.73 921.52 465.598C919.338 469.879 915.857 473.361 911.575 475.542C906.708 478.022 900.335 478.022 887.591 478.022H618.78C601.057 478.022 592.195 478.022 586.514 474.299C581.544 471.042 578.046 465.971 576.766 460.168C575.303 453.535 578.45 445.251 584.744 428.683L725.76 57.501Z" fill="#FFC7DF"/>
</svg>
