<svg width="375" height="876" viewBox="0 0 375 876" fill="none" xmlns="http://www.w3.org/2000/svg">
<g clip-path="url(#clip0_0_1726)">
<rect width="375" height="876" fill="white"/>
<path d="M223.644 -15.2889C202.119 -10.6454 184.939 6.84086 178.532 27.6053C171.897 49.1164 178.603 71.6942 195.164 86.7698C211.157 101.312 234.987 108.174 255.68 100.224C275.036 92.7858 291.854 71.5733 282.51 50.368C274.617 32.4622 251.221 21.9946 232.946 29.8097C214.67 37.6249 205.788 59.4986 209.131 78.3857C213.355 102.215 236.508 115.364 257.678 122.027C283.321 130.148 313.195 131.342 334.201 150.03C350.763 164.764 358.884 187.719 357.234 209.643C356.479 220.629 352.996 231.254 347.1 240.555C340.58 250.645 329.451 259.285 317.177 260.466C303.524 261.781 293.71 251.307 292.722 238.158C291.648 223.701 300.409 211.065 308.736 200.092C324.644 179.143 345.003 158.286 371.428 151.829C394.83 146.14 422.976 152.583 435.385 174.862C449.451 200.121 439.438 230.265 424.526 252.551C416.434 264.64 406.812 275.669 397.34 286.684C387.712 297.884 377.998 309.028 368.896 320.683C351.673 342.784 336.647 367.04 330.169 394.588C324.089 420.43 325.902 448.22 340.245 471.111C353.572 492.444 375.09 507.499 397.973 517.148C426.56 529.237 457.636 533.988 487.929 539.776L585.095 558.35L631.687 567.253C632.69 567.445 633.109 565.909 632.114 565.71L536.114 547.356C504.882 541.39 473.429 536.107 442.411 529.109C414.798 522.873 387.1 513.792 364.75 495.822C354.852 487.865 346.148 478.315 339.826 467.25C333.039 455.163 329.184 441.652 328.569 427.804C325.476 367.566 370.091 321.408 406.165 278.82C423.346 258.524 441.01 235.925 443.371 208.42C444.402 196.53 442.517 184.1 436.551 173.639C431.055 164.2 422.559 156.871 412.416 152.818C390.528 143.822 365.874 148.708 346.404 161.102C335.524 168.05 326.044 176.996 317.582 186.667C308.942 196.551 299.904 207.41 294.656 219.534C290.19 229.86 289.173 242.581 295.758 252.295C301.646 260.971 312.071 263.716 321.934 261.234C343.417 255.829 355.826 234.076 358.45 213.412C361.045 192.917 355.051 171.193 341.653 155.378C324.587 135.26 297.948 130.432 273.593 124.644C250.524 119.168 222.201 109.931 212.793 85.6178C205.276 66.1973 213.34 40.4622 232.896 31.5733C252.651 22.5778 279.573 36.5511 283.186 58.0906C287.524 83.904 259.321 102.251 236.53 101.988C213.739 101.724 191.452 87.0542 182.059 66.2755C172.295 44.6435 179.15 19.0435 195.314 2.44619C203.089 -5.65893 213.087 -11.2849 224.05 -13.7245C225.067 -13.9449 224.626 -15.4809 223.644 -15.2889Z" fill="#D1ECFD"/>
</g>
<defs>
<clipPath id="clip0_0_1726">
<rect width="375" height="876" fill="white"/>
</clipPath>
</defs>
</svg>
