<svg width="375" height="1344" viewBox="0 0 375 1344" fill="none" xmlns="http://www.w3.org/2000/svg">
<rect width="375" height="839.18" fill="url(#paint0_linear_0_2020)"/>
<mask id="mask0_0_2020" style="mask-type:alpha" maskUnits="userSpaceOnUse" x="0" y="0" width="375" height="1344">
<rect width="375" height="1344" fill="url(#paint1_linear_0_2020)"/>
</mask>
<g mask="url(#mask0_0_2020)">
<path d="M-5.356 1020.09C-26.8813 1022.67 -44.0618 1032.39 -50.4689 1043.93C-57.1036 1055.88 -50.3978 1068.42 -33.836 1076.8C-17.8431 1084.88 5.98623 1088.69 26.6796 1084.27C46.036 1080.14 62.8538 1068.35 53.5098 1056.57C45.6164 1046.62 22.2209 1040.81 3.94533 1045.15C-14.3302 1049.49 -23.212 1061.65 -19.8698 1072.14C-15.6458 1085.38 7.508 1092.68 28.6778 1096.39C54.3204 1100.9 84.1942 1101.56 105.2 1111.95C121.762 1120.13 129.883 1132.89 128.233 1145.07C127.479 1151.17 123.996 1157.07 118.1 1162.24C111.579 1167.85 100.45 1172.65 88.1764 1173.3C74.5231 1174.03 64.7098 1168.21 63.7213 1160.91C62.6476 1152.88 71.4084 1145.86 79.7355 1139.76C95.6431 1128.12 116.002 1116.53 142.427 1112.94C165.83 1109.78 193.976 1113.36 206.384 1125.74C220.45 1139.78 210.438 1156.52 195.526 1168.91C187.433 1175.62 177.812 1181.75 168.34 1187.87C158.712 1194.09 148.998 1200.28 139.896 1206.76C122.672 1219.04 107.647 1232.52 101.168 1247.82C95.0884 1262.18 96.9018 1277.62 111.245 1290.34C124.571 1302.19 146.089 1310.56 168.973 1315.92C197.56 1322.63 228.635 1325.27 258.928 1328.49L356.095 1338.81L402.687 1343.75C403.689 1343.86 404.109 1343.01 403.113 1342.9L307.113 1332.7C275.881 1329.39 244.429 1326.45 213.41 1322.56C185.798 1319.1 158.1 1314.05 135.75 1304.07C125.851 1299.65 117.147 1294.34 110.825 1288.19C104.039 1281.48 100.183 1273.97 99.5684 1266.28C96.4751 1232.81 141.09 1207.16 177.165 1183.5C194.345 1172.22 212.009 1159.67 214.37 1144.39C215.401 1137.78 213.517 1130.87 207.551 1125.06C202.054 1119.82 193.558 1115.75 183.416 1113.49C161.528 1108.5 136.873 1111.21 117.403 1118.1C106.523 1121.96 97.044 1126.93 88.5818 1132.3C79.9418 1137.79 70.9036 1143.83 65.6556 1150.56C61.1898 1156.3 60.1729 1163.37 66.7578 1168.76C72.6458 1173.58 83.0707 1175.11 92.9338 1173.73C114.416 1170.73 126.825 1158.64 129.449 1147.16C132.045 1135.77 126.05 1123.7 112.653 1114.92C95.5862 1103.74 68.948 1101.06 44.5924 1097.84C21.524 1094.8 -6.79956 1089.67 -16.2076 1076.16C-23.724 1065.37 -15.66 1051.07 3.89555 1046.13C23.6502 1041.13 50.5729 1048.9 54.1853 1060.86C58.5231 1075.21 30.3204 1085.4 7.52933 1085.25C-15.2618 1085.11 -37.548 1076.96 -46.9418 1065.41C-56.7053 1053.39 -49.8502 1039.17 -33.6867 1029.95C-25.9115 1025.44 -15.914 1022.32 -4.95067 1020.96C-3.93378 1020.84 -4.37467 1019.99 -5.356 1020.09Z" fill="#9A97ED"/>
<path d="M3.77604 518.128C-4.0604 531.142 0.369818 546.314 16.4196 556.879C30.6418 566.223 54.4072 572.121 76.2027 568.214C95.5165 564.749 111.993 553.706 108.444 541.987C105.316 531.648 85.7885 523.059 66.8445 524.793C47.6445 526.547 38.4 537.902 39.8649 547.752C41.6072 559.723 58.1618 568.297 77.2338 572.686C102.556 578.534 130.261 577.329 157.049 577.712C182.044 578.068 209.828 580.28 228.373 590.568C247.573 601.204 248.469 617.763 237.71 630.892C232.256 637.545 224.199 643.479 214.884 648.612C205.44 653.819 194.432 658.311 181.988 661.041C159.161 666.043 128.732 664.261 114.759 651.796C108.7 646.387 106.361 639.513 109.988 633.385C113.543 627.383 122.716 623.045 133.326 621.093C144.064 619.097 155.78 619.509 165.98 622.239C176.562 625.111 184.91 630.078 190.443 635.799C204.068 649.9 198.706 666.675 189.02 680.966C179.726 694.68 166.308 708.168 166.841 723.241C167.054 729.361 169.486 735.588 175.324 740.838C181.333 746.224 190.635 749.977 201.244 752.201C227.733 757.78 256.576 753.703 283.797 756.852C306.169 759.443 326.684 766.29 341.874 775.737C349.501 780.46 355.693 785.842 360.206 791.671C365.582 798.684 367.317 806.377 372.935 813.334C377.344 818.787 385.124 824.093 395.94 825.657C408.69 827.502 420.935 823.595 432.036 820.64C442.581 817.827 456.533 815.326 466.923 819.672C467.748 820.015 468.544 819.241 467.726 818.905C458.482 815.041 446.116 816.385 436.153 818.641C423.844 821.43 411.157 826.681 397.134 824.907C384.334 823.295 376.512 816.527 372.288 810.118C367.858 803.331 365.767 796.183 360.256 789.601C350.976 778.499 335.232 769.151 316.295 762.948C306.809 759.828 296.508 757.546 285.76 756.184C272.135 754.477 258.133 754.604 244.245 754.572C219.022 754.481 189.077 752.901 175.488 739.219C162.958 726.576 169.088 711.428 177.813 698.749C187.868 684.178 200.967 670.006 200.249 653.973C199.673 641.279 189.184 628.027 168.213 621.876C150.642 616.739 126.507 618.466 113.906 627.454C100.629 636.937 106.908 651.101 122.965 658.272C141.81 666.683 168.476 665.98 189.205 660.216C211.072 654.123 230.13 642.895 239.822 630.425C249.244 618.3 249.124 603.354 233.87 592.662C219.577 582.643 195.819 578.557 173.739 577.356C145.294 575.815 116.068 578.301 88.2632 573.88C66.9938 570.501 45.4187 562.548 41.8347 549.534C38.9049 538.886 49.1947 525.67 71.2107 525.461C81.7849 525.362 91.9325 528.428 98.7307 532.806C106.135 537.473 108.935 543.865 106.219 549.901C103.445 556.049 95.7512 561.323 86.1654 564.654C76.0499 568.146 63.9051 569.343 52.2454 567.997C27.1645 565.207 8.47648 553.263 3.17871 539.68C0.442082 532.598 1.17885 525.238 5.31204 518.369C5.64626 517.82 4.10315 517.586 3.77604 518.128Z" fill="#9A97ED"/>
</g>
<defs>
<linearGradient id="paint0_linear_0_2020" x1="375" y1="839.18" x2="375" y2="0" gradientUnits="userSpaceOnUse">
<stop stop-color="white" stop-opacity="0.01"/>
<stop offset="1" stop-color="#EDE5F0" stop-opacity="0.504289"/>
</linearGradient>
<linearGradient id="paint1_linear_0_2020" x1="375" y1="1344" x2="375" y2="0" gradientUnits="userSpaceOnUse">
<stop stop-color="white" stop-opacity="0.01"/>
<stop offset="1" stop-color="#EDE5F0" stop-opacity="0.504289"/>
</linearGradient>
</defs>
</svg>
